{
    "asset": {
        "generator": "FBX2glTF v0.9.7",
        "version": "2.0"
    },
    "scene": 0,
    "buffers": [
        {
            "byteLength": 191752,
            "uri": "buffer.bin"
        }
    ],
    "bufferViews": [
        {
            "buffer": 0,
            "byteLength": 160,
            "byteOffset": 0
        },
        {
            "buffer": 0,
            "byteLength": 480,
            "byteOffset": 160
        },
        {
            "buffer": 0,
            "byteLength": 640,
            "byteOffset": 640
        },
        {
            "buffer": 0,
            "byteLength": 640,
            "byteOffset": 1280
        },
        {
            "buffer": 0,
            "byteLength": 640,
            "byteOffset": 1920
        },
        {
            "buffer": 0,
            "byteLength": 640,
            "byteOffset": 2560
        },
        {
            "buffer": 0,
            "byteLength": 640,
            "byteOffset": 3200
        },
        {
            "buffer": 0,
            "byteLength": 640,
            "byteOffset": 3840
        },
        {
            "buffer": 0,
            "byteLength": 640,
            "byteOffset": 4480
        },
        {
            "buffer": 0,
            "byteLength": 11736,
            "byteOffset": 5120,
            "target": 34963
        },
        {
            "buffer": 0,
            "byteLength": 37368,
            "byteOffset": 16856,
            "target": 34962
        },
        {
            "buffer": 0,
            "byteLength": 37368,
            "byteOffset": 54224,
            "target": 34962
        },
        {
            "buffer": 0,
            "byteLength": 24912,
            "byteOffset": 91592,
            "target": 34962
        },
        {
            "buffer": 0,
            "byteLength": 24912,
            "byteOffset": 116504,
            "target": 34962
        },
        {
            "buffer": 0,
            "byteLength": 49824,
            "byteOffset": 141416,
            "target": 34962
        },
        {
            "buffer": 0,
            "byteLength": 512,
            "byteOffset": 191240
        }
    ],
    "scenes": [
        {
            "name": "Root Scene",
            "nodes": [
                0
            ]
        }
    ],
    "accessors": [
        {
            "componentType": 5126,
            "type": "SCALAR",
            "count": 40,
            "bufferView": 0,
            "byteOffset": 0,
            "min": [
                0.0
            ],
            "max": [
                1.625
            ]
        },
        {
            "componentType": 5126,
            "type": "VEC3",
            "count": 40,
            "bufferView": 1,
            "byteOffset": 0
        },
        {
            "componentType": 5126,
            "type": "VEC4",
            "count": 40,
            "bufferView": 2,
            "byteOffset": 0
        },
        {
            "componentType": 5126,
            "type": "VEC4",
            "count": 40,
            "bufferView": 3,
            "byteOffset": 0
        },
        {
            "componentType": 5126,
            "type": "VEC4",
            "count": 40,
            "bufferView": 4,
            "byteOffset": 0
        },
        {
            "componentType": 5126,
            "type": "VEC4",
            "count": 40,
            "bufferView": 5,
            "byteOffset": 0
        },
        {
            "componentType": 5126,
            "type": "VEC4",
            "count": 40,
            "bufferView": 6,
            "byteOffset": 0
        },
        {
            "componentType": 5126,
            "type": "VEC4",
            "count": 40,
            "bufferView": 7,
            "byteOffset": 0
        },
        {
            "componentType": 5126,
            "type": "VEC4",
            "count": 40,
            "bufferView": 8,
            "byteOffset": 0
        },
        {
            "componentType": 5123,
            "type": "SCALAR",
            "count": 5868,
            "bufferView": 9,
            "byteOffset": 0
        },
        {
            "componentType": 5126,
            "type": "VEC3",
            "count": 3114,
            "bufferView": 10,
            "byteOffset": 0,
            "min": [
                -0.0106380200013518,
                -0.0286812707781792,
                6.23000005361973e-06
            ],
            "max": [
                0.0106380200013518,
                0.0158278197050095,
                0.0387348495423794
            ]
        },
        {
            "componentType": 5126,
            "type": "VEC3",
            "count": 3114,
            "bufferView": 11,
            "byteOffset": 0
        },
        {
            "componentType": 5126,
            "type": "VEC2",
            "count": 3114,
            "bufferView": 12,
            "byteOffset": 0
        },
        {
            "componentType": 5123,
            "type": "VEC4",
            "count": 3114,
            "bufferView": 13,
            "byteOffset": 0
        },
        {
            "componentType": 5126,
            "type": "VEC4",
            "count": 3114,
            "bufferView": 14,
            "byteOffset": 0
        },
        {
            "componentType": 5126,
            "type": "MAT4",
            "count": 8,
            "bufferView": 15,
            "byteOffset": 0
        }
    ],
    "images": [
        {
            "name": "ChickenbotDiffuse.png",
            "uri": "ChickenbotDiffuse.png"
        }
    ],
    "samplers": [
        {}
    ],
    "textures": [
        {
            "name": "ChickenbotDiffuse_png",
            "sampler": 0,
            "source": 0
        }
    ],
    "materials": [
        {
            "name": "None__ChickenbotDiffuse_png",
            "alphaMode": "BLEND",
            "extras": {
                "fromFBX": {
                    "shadingModel": "Phong",
                    "isTruePBR": false
                }
            },
            "pbrMetallicRoughness": {
                "baseColorTexture": {
                    "index": 0,
                    "texCoord": 0
                },
                "baseColorFactor": [
                    1.0,
                    1.0,
                    1.0,
                    1.0
                ],
                "metallicFactor": 0.400000005960464,
                "roughnessFactor": 0.373978793621063
            }
        }
    ],
    "meshes": [
        {
            "name": "Chickenbot",
            "primitives": [
                {
                    "material": 0,
                    "mode": 4,
                    "attributes": {
                        "JOINTS_0": 13,
                        "NORMAL": 11,
                        "POSITION": 10,
                        "TEXCOORD_0": 12,
                        "WEIGHTS_0": 14
                    },
                    "indices": 9
                }
            ]
        }
    ],
    "skins": [
        {
            "joints": [
                4,
                8,
                9,
                10,
                5,
                6,
                7,
                11
            ],
            "inverseBindMatrices": 15,
            "skeleton": 4
        }
    ],
    "animations": [
        {
            "name": "Take 001",
            "channels": [
                {
                    "sampler": 0,
                    "target": {
                        "node": 4,
                        "path": "translation"
                    }
                },
                {
                    "sampler": 1,
                    "target": {
                        "node": 4,
                        "path": "rotation"
                    }
                },
                {
                    "sampler": 2,
                    "target": {
                        "node": 5,
                        "path": "rotation"
                    }
                },
                {
                    "sampler": 3,
                    "target": {
                        "node": 6,
                        "path": "rotation"
                    }
                },
                {
                    "sampler": 4,
                    "target": {
                        "node": 7,
                        "path": "rotation"
                    }
                },
                {
                    "sampler": 5,
                    "target": {
                        "node": 8,
                        "path": "rotation"
                    }
                },
                {
                    "sampler": 6,
                    "target": {
                        "node": 9,
                        "path": "rotation"
                    }
                },
                {
                    "sampler": 7,
                    "target": {
                        "node": 10,
                        "path": "rotation"
                    }
                }
            ],
            "samplers": [
                {
                    "input": 0,
                    "interpolation": "LINEAR",
                    "output": 1
                },
                {
                    "input": 0,
                    "interpolation": "LINEAR",
                    "output": 2
                },
                {
                    "input": 0,
                    "interpolation": "LINEAR",
                    "output": 3
                },
                {
                    "input": 0,
                    "interpolation": "LINEAR",
                    "output": 4
                },
                {
                    "input": 0,
                    "interpolation": "LINEAR",
                    "output": 5
                },
                {
                    "input": 0,
                    "interpolation": "LINEAR",
                    "output": 6
                },
                {
                    "input": 0,
                    "interpolation": "LINEAR",
                    "output": 7
                },
                {
                    "input": 0,
                    "interpolation": "LINEAR",
                    "output": 8
                }
            ]
        }
    ],
    "nodes": [
        {
            "name": "RootNode",
            "translation": [
                0.0,
                0.0,
                0.0
            ],
            "rotation": [
                0.0,
                0.0,
                0.0,
                1.0
            ],
            "scale": [
                1.0,
                1.0,
                1.0
            ],
            "children": [
                1,
                2
            ]
        },
        {
            "name": "Chickenbot",
            "translation": [
                0.0,
                0.0,
                0.0
            ],
            "rotation": [
                2.1855694143369e-08,
                0.0,
                0.0,
                1.0
            ],
            "scale": [
                1.0,
                1.0,
                1.0
            ],
            "mesh": 0,
            "skin": 0
        },
        {
            "name": "chicken_rig",
            "translation": [
                0.0,
                0.0,
                0.0
            ],
            "rotation": [
                -0.70710676908493,
                -0.0,
                0.0,
                0.70710676908493
            ],
            "scale": [
                1.0,
                1.0,
                1.0
            ],
            "children": [
                3
            ]
        },
        {
            "name": "root",
            "translation": [
                0.0,
                0.0,
                0.0
            ],
            "rotation": [
                0.50000011920929,
                -0.49999988079071,
                0.5,
                0.499999970197678
            ],
            "scale": [
                1.0,
                1.0,
                1.0
            ],
            "children": [
                4,
                12
            ]
        },
        {
            "name": "Bone",
            "translation": [
                0.0237924158573151,
                6.47192743841174e-10,
                -0.00240980624221265
            ],
            "rotation": [
                1.42108496330043e-14,
                -3.38813259681077e-21,
                -1.42108564092679e-14,
                1.0
            ],
            "scale": [
                1.0,
                1.0,
                1.0
            ],
            "children": [
                5,
                8,
                11
            ]
        },
        {
            "name": "Bone_L",
            "translation": [
                2.98357008432504e-05,
                -0.00856776256114244,
                0.00024676977773197
            ],
            "rotation": [
                -0.247495323419571,
                0.662379384040833,
                0.662378668785095,
                0.24749568104744
            ],
            "scale": [
                1.0,
                1.0,
                1.0
            ],
            "children": [
                6
            ]
        },
        {
            "name": "Bone_L_001",
            "translation": [
                0.0159017257392406,
                -1.19209286886246e-09,
                5.9604643443123e-10
            ],
            "rotation": [
                -0.507033288478851,
                -0.492866218090057,
                0.492866724729538,
                0.507033109664917
            ],
            "scale": [
                1.0,
                1.0,
                1.0
            ],
            "children": [
                7
            ]
        },
        {
            "name": "Bone_L_002",
            "translation": [
                0.0143086761236191,
                1.19209286886246e-09,
                1.34110444971469e-09
            ],
            "rotation": [
                0.915660738945007,
                1.75468812813051e-07,
                -0.401952028274536,
                2.2095663609889e-07
            ],
            "scale": [
                1.0,
                1.0,
                1.0
            ]
        },
        {
            "name": "Bone_R",
            "translation": [
                2.98357008432504e-05,
                0.00856776442378759,
                0.000246763956965879
            ],
            "rotation": [
                0.247495174407959,
                0.662379264831543,
                -0.66237884759903,
                0.247495666146278
            ],
            "scale": [
                1.0,
                1.0,
                1.0
            ],
            "children": [
                9
            ]
        },
        {
            "name": "Bone_R_001",
            "translation": [
                0.0159017201513052,
                1.19209286886246e-09,
                -1.19209286886246e-09
            ],
            "rotation": [
                0.507033348083496,
                -0.492866188287735,
                -0.492866814136505,
                0.507032930850983
            ],
            "scale": [
                0.999998986721039,
                1.0,
                1.0
            ],
            "children": [
                10
            ]
        },
        {
            "name": "Bone_R_002",
            "translation": [
                0.0143086761236191,
                -5.9604643443123e-10,
                -1.49011608607807e-10
            ],
            "rotation": [
                0.915660679340363,
                1.65909000315878e-07,
                -0.40195220708847,
                2.16760071225508e-07
            ],
            "scale": [
                1.0,
                1.0,
                1.0
            ]
        },
        {
            "name": "Bone_001",
            "translation": [
                0.00364910112693906,
                9.88444548433165e-10,
                0.00299031077884138
            ],
            "rotation": [
                0.70710688829422,
                1.37678725309343e-07,
                0.707106649875641,
                -1.37678767941907e-07
            ],
            "scale": [
                1.0,
                1.0,
                1.0
            ]
        },
        {
            "name": "ik_root",
            "translation": [
                -2.38418573772492e-09,
                -1.79999980535916e-16,
                -8.07793548890723e-30
            ],
            "rotation": [
                1.42108496330043e-14,
                -1.02921660116867e-28,
                -7.105427357601e-15,
                1.0
            ],
            "scale": [
                1.0,
                1.0,
                1.0
            ],
            "children": [
                13,
                14
            ]
        },
        {
            "name": "ikTarget_R",
            "translation": [
                0.00213160505518317,
                0.00856776628643274,
                -0.00205782521516085
            ],
            "rotation": [
                -2.6692557497654e-08,
                0.707106649875641,
                2.66925503922266e-08,
                0.70710688829422
            ],
            "scale": [
                1.0,
                1.0,
                1.0
            ]
        },
        {
            "name": "ikTarget_L",
            "translation": [
                0.00213160645216703,
                -0.00856776349246502,
                -0.00205782102420926
            ],
            "rotation": [
                -2.6692557497654e-08,
                0.707106649875641,
                2.66925503922266e-08,
                0.70710688829422
            ],
            "scale": [
                1.0,
                1.0,
                1.0
            ]
        }
    ]
}